<svg xmlns="http://www.w3.org/2000/svg" version="1.1" xmlns:xlink="http://www.w3.org/1999/xlink" xmlns:svgjs="http://svgjs.dev/svgjs" width="1000" height="1119" viewBox="0 0 1000 1119"><g transform="matrix(1,0,0,1,0.48868650793656343,-1.5832659574465424)"><svg viewBox="0 0 126 141" data-background-color="#ffffff" preserveAspectRatio="xMidYMid meet" height="1119" width="1000" xmlns="http://www.w3.org/2000/svg" xmlns:xlink="http://www.w3.org/1999/xlink"><g id="tight-bounds" transform="matrix(1,0,0,1,-0.06157450000000608,0.19949999999997203)"><svg viewBox="0 0 126.12314900000001 140.60052000000002" height="140.60052000000002" width="126.12314900000001"><g><svg viewBox="0 0 126.12314900000001 140.60052000000002" height="140.60052000000002" width="126.12314900000001"><g><svg viewBox="0 0 126.12314900000001 140.60052000000002" height="140.60052000000002" width="126.12314900000001"><g><path d="M0 140.601v-140.601h126.123v140.601z" fill="#ed2647" stroke="transparent" stroke-width="0" rx="0%" data-fill-palette-color="tertiary"></path><path d="M3.283 137.317v-134.034h119.557v134.034z" fill="#ffffff" stroke="transparent" stroke-width="0" rx="0%" data-fill-palette-color="quaternary"></path><path d="M9.85 130.751v-120.901h106.423v120.901z" fill="#ed2647" stroke="transparent" stroke-width="0" data-fill-palette-color="tertiary"></path></g><g transform="matrix(1,0,0,1,19.69974,19.69974)" id="textblocktransform"><svg viewBox="0 0 86.72366900000002 101.20104000000002" height="101.20104000000002" width="86.72366900000002" id="textblock"><g><svg viewBox="0 0 86.72366900000002 101.20104000000002" height="101.20104000000002" width="86.72366900000002"><g transform="matrix(1,0,0,1,0,0)"><svg width="86.72366900000002" viewBox="2.049999952316284 -36 30.85000228881836 36" height="101.20104000000002" data-palette-color="#ffffff"><path d="M31.2-27.35L31.2-27.35Q31.2-25.45 30.33-23.8 29.45-22.15 27.95-21.05 26.45-19.95 24.5-19.7L24.5-19.7 24.5-19.5Q28.4-18.7 30.65-16.2 32.9-13.7 32.9-10.05L32.9-10.05Q32.9-7.25 31.43-4.88 29.95-2.5 27.7-1.35L27.7-1.35Q26.3-0.65 24.25-0.33 22.2 0 18.5 0L18.5 0 2.05 0 2.05-2.9 6.25-3.95 6.25-32.05 2.05-33.1 2.05-36 20.35-36Q25.6-36 28.45-33.45L28.45-33.45Q29.75-32.25 30.48-30.65 31.2-29.05 31.2-27.35ZM17.65-16.95L17.65-16.95 12.75-16.95 12.75-3.75 16.75-3.75Q19.05-3.75 20.45-4 21.85-4.25 22.8-4.8L22.8-4.8Q24.15-5.5 25-7.03 25.85-8.55 25.85-10.55L25.85-10.55Q25.85-12.3 25.2-13.5 24.55-14.7 23.55-15.5L23.55-15.5Q22.65-16.2 21.25-16.57 19.85-16.95 17.65-16.95ZM17.7-32.35L12.75-32.35 12.75-20.6 17.5-20.6Q21-20.6 22.65-22.35L22.65-22.35Q23.4-23.05 23.95-24.13 24.5-25.2 24.5-26.6L24.5-26.6Q24.5-28 23.95-29.1 23.4-30.2 22.65-30.85L22.65-30.85Q21.15-32.35 17.7-32.35L17.7-32.35Z" opacity="1" transform="matrix(1,0,0,1,0,0)" fill="#ffffff" class="undefined-text-0" data-fill-palette-color="quaternary" id="text-0"></path></svg></g></svg></g></svg></g></svg></g><g></g></svg></g><defs></defs></svg><rect width="126.12314900000001" height="140.60052000000002" fill="none" stroke="none" visibility="hidden"></rect></g></svg></g></svg>